<?xml version="1.0" encoding="UTF-8" standalone="no"?>
<!-- Created with Inkscape (http://www.inkscape.org/) -->

<svg
   xmlns:dc="http://purl.org/dc/elements/1.1/"
   xmlns:cc="http://creativecommons.org/ns#"
   xmlns:rdf="http://www.w3.org/1999/02/22-rdf-syntax-ns#"
   xmlns:svg="http://www.w3.org/2000/svg"
   xmlns="http://www.w3.org/2000/svg"
   xmlns:sodipodi="http://sodipodi.sourceforge.net/DTD/sodipodi-0.dtd"
   xmlns:inkscape="http://www.inkscape.org/namespaces/inkscape"
   version="1.1"
   id="svg3604"
   width="60"
   height="60"
   viewBox="0 0 60 60"
   sodipodi:docname="blackQueen.svg"
   inkscape:version="0.92.3 (2405546, 2018-03-11)">
  <metadata
     id="metadata3610">
    <rdf:RDF>
      <cc:Work
         rdf:about="">
        <dc:format>image/svg+xml</dc:format>
        <dc:type
           rdf:resource="http://purl.org/dc/dcmitype/StillImage" />
        <dc:title></dc:title>
      </cc:Work>
    </rdf:RDF>
  </metadata>
  <defs
     id="defs3608" />
  <sodipodi:namedview
     pagecolor="#ffffff"
     bordercolor="#666666"
     borderopacity="1"
     objecttolerance="10"
     gridtolerance="10"
     guidetolerance="10"
     inkscape:pageopacity="0"
     inkscape:pageshadow="2"
     inkscape:window-width="1920"
     inkscape:window-height="1017"
     id="namedview3606"
     showgrid="false"
     inkscape:zoom="3.9333333"
     inkscape:cx="30"
     inkscape:cy="30"
     inkscape:window-x="1358"
     inkscape:window-y="-8"
     inkscape:window-maximized="1"
     inkscape:current-layer="svg3604" />
  <path
     style="fill:#000000"
     d="m 18.543813,52.397587 c -6.035897,-1.65121 -6.866404,-2.78918 -4.905007,-6.720894 2.045989,-4.101281 2.029538,-4.446274 -0.3682,-7.721424 -1.090997,-1.490229 -2.715565,-6.277513 -3.6101512,-10.638409 -1.094901,-5.337385 -2.285727,-8.462696 -3.643402,-9.562075 -2.948676,-2.387693 -1.57613,-6.239227 2.073025,-5.817162 2.2296052,0.257878 2.6744672,0.813762 2.7273532,3.408005 0.06072,2.978299 5.139244,12.394656 6.686806,12.398346 0.4125,9.83e-4 0.75,-2.868112 0.75,-6.375767 0,-4.537334 -0.446744,-6.74832 -1.548257,-7.662495 -2.461141,-2.042565 -1.410481,-5.4071833 1.803943,-5.7769203 3.206452,-0.3688202 4.691137,2.0712193 2.953383,4.8538053 -0.866124,1.386886 -0.520346,3.249451 1.591323,8.571783 l 2.697895,6.79988 1.380203,-6.402094 c 1.123342,-5.210639 1.14648,-7.048444 0.124331,-9.875147 -1.114196,-3.0812552 -1.048742,-3.6245099 0.580217,-4.8156333 2.15564,-1.5762424 3.376903,-1.3262358 4.838224,0.99044 0.767791,1.2172004 0.724548,2.2308113 -0.155274,3.6396303 -0.935983,1.498747 -0.959635,3.300943 -0.101755,7.753456 0.614717,3.190468 1.454652,6.178762 1.866522,6.640655 1.097787,1.231116 4.452886,-9.176126 4.461692,-13.839805 0.0062,-3.2910095 0.377558,-4.0528646 2.095058,-4.2982564 1.148128,-0.1640414 2.663859,0.3962059 3.368291,1.244994 1.051478,1.2669534 0.991053,1.9854364 -0.337506,4.0130734 -1.097999,1.675758 -1.610061,4.651305 -1.592694,9.255006 l 0.0256,6.785183 3.451469,-5.417288 c 2.151653,-3.377148 3.26806,-6.201633 2.964453,-7.5 -0.688784,-2.945561 0.853271,-4.815073 3.645974,-4.420204 3.11269,0.440112 3.83665,4.483966 1.14081,6.372211 -1.315,0.921061 -2.31339,3.619169 -3.201491,8.651873 -1.882739,10.669178 -2.080784,10.917037 -7.27926,9.11023 -7.845406,-2.726785 -28.773151,-1.410955 -28.773151,1.80911 0,0.590697 0.895952,0.744479 2.103852,0.361107 7.03834,-2.233883 21.285134,-2.173682 27.249722,0.115146 3.914208,1.502022 0.755962,1.899244 -12.852018,1.616437 -9.664575,-0.200854 -14.501556,0.04931 -14.501556,0.75 0,0.686832 5.027614,1.051378 14.5,1.051378 8.61247,0 14.5,0.390386 14.5,0.961456 0,2.680713 -17.919176,4.146213 -26.255326,2.147264 -3.759492,-0.9015 -6.182055,0.125728 -3.092504,1.311299 6.703958,2.572551 25.605634,2.270765 28.89767,-0.461382 0.856222,-0.710602 1.346486,-0.463087 1.690813,0.853621 0.266717,1.019925 -0.01582,1.885775 -0.627857,1.924111 -0.612038,0.03834 -4.59177,0.642691 -8.84385,1.34301 -7.425154,1.222925 -16.453978,0.51366 -22.372486,-1.757485 -1.157687,-0.444246 -1.526068,-0.208616 -1.201861,0.768756 1.125725,3.393684 18.412599,4.921668 27.70412,2.448762 2.969295,-0.790267 4.994295,-1.071108 4.5,-0.624091 -3.160739,2.858421 -19.242462,3.888553 -27.109143,1.736504 z"
     id="path4157"
     inkscape:connector-curvature="0" />
</svg>
