<?xml version="1.0" encoding="UTF-8" standalone="no"?>
<!-- Created with Inkscape (http://www.inkscape.org/) -->

<svg
   xmlns:dc="http://purl.org/dc/elements/1.1/"
   xmlns:cc="http://creativecommons.org/ns#"
   xmlns:rdf="http://www.w3.org/1999/02/22-rdf-syntax-ns#"
   xmlns:svg="http://www.w3.org/2000/svg"
   xmlns="http://www.w3.org/2000/svg"
   xmlns:sodipodi="http://sodipodi.sourceforge.net/DTD/sodipodi-0.dtd"
   xmlns:inkscape="http://www.inkscape.org/namespaces/inkscape"
   version="1.1"
   id="svg2494"
   width="60"
   height="60"
   viewBox="0 0 60 60"
   sodipodi:docname="blackKing.svg"
   inkscape:version="0.92.3 (2405546, 2018-03-11)">
  <metadata
     id="metadata2500">
    <rdf:RDF>
      <cc:Work
         rdf:about="">
        <dc:format>image/svg+xml</dc:format>
        <dc:type
           rdf:resource="http://purl.org/dc/dcmitype/StillImage" />
        <dc:title></dc:title>
      </cc:Work>
    </rdf:RDF>
  </metadata>
  <defs
     id="defs2498" />
  <sodipodi:namedview
     pagecolor="#ffffff"
     bordercolor="#666666"
     borderopacity="1"
     objecttolerance="10"
     gridtolerance="10"
     guidetolerance="10"
     inkscape:pageopacity="0"
     inkscape:pageshadow="2"
     inkscape:window-width="1920"
     inkscape:window-height="1017"
     id="namedview2496"
     showgrid="false"
     inkscape:zoom="3.9333333"
     inkscape:cx="30"
     inkscape:cy="30"
     inkscape:window-x="1358"
     inkscape:window-y="-8"
     inkscape:window-maximized="1"
     inkscape:current-layer="svg2494" />
  <path
     style="fill:#000000"
     d="m 20.512712,51.132937 c -6.277077,-2.424814 -1.332162,-4.422538 10.75,-4.342953 4.635468,0.03053 9.013525,0.60703 10.409903,1.370761 2.303491,1.259865 2.325569,1.365622 0.5,2.395057 -2.608057,1.470678 -18.266725,1.887909 -21.659903,0.577135 z m -4.75,-5.363556 c 0,-1.770496 8.129491,-3.865426 15,-3.865426 7.279817,0 15,2.094888 15,4.070283 0,1.015166 -0.54722,1.251185 -1.75,0.754787 -6.68347,-2.758329 -16.5345,-3.21332 -23.591069,-1.089605 -3.702344,1.114242 -4.658931,1.140926 -4.658931,0.129961 z m 0,-4.806389 c 0,-3.340288 19.244065,-5.079677 25.5,-2.304836 2.880246,1.277543 3.177623,1.165968 7.449725,-2.795104 2.447349,-2.26917 3.797349,-3.228705 2.999999,-2.132301 -0.79735,1.096405 -2.462224,2.816566 -3.699724,3.822581 -1.2375,1.006014 -2.25,2.523939 -2.25,3.373168 0,1.12523 -0.610307,1.36951 -2.25,0.900576 -9.353067,-2.674873 -19.296977,-2.699297 -26,-0.06386 -1.19097,0.468255 -1.75,0.212627 -1.75,-0.800224 z M 11.272706,35.247719 C 9.6974011,33.603456 8.6007101,32.132774 8.8356141,31.979537 c 0.234904,-0.153237 1.8510419,1.192069 3.5914179,2.989569 1.740375,1.7975 2.837066,3.268182 2.437091,3.268182 -0.399976,0 -2.016114,-1.345306 -3.591417,-2.989569 z m 2.89962,-1.400817 c -3.540229,-3.540228 -4.089555,-5.470617 -2.435992,-8.560327 3.180337,-5.942513 18.026378,0.156259 18.026378,7.405258 0,2.233236 -0.421317,2.545455 -3.4349,2.545455 -1.889196,0 -4.629869,0.454326 -6.090386,1.009614 -2.341442,0.890214 -3.058715,0.606385 -6.0651,-2.4 z m 26.590386,2.335101 c -1.375,-0.409945 -3.9625,-0.790211 -5.75,-0.845035 -4.266384,-0.130853 -4.33731,-2.79171 -0.200015,-7.503828 5.204166,-5.927218 13.136209,-6.853496 15.815657,-1.846901 2.336092,4.365033 -4.774564,11.713627 -9.865642,10.195764 z M 7.9206061,28.237288 c 0,-1.375 0.226974,-1.9375 0.504386,-1.25 0.277413,0.6875 0.277413,1.8125 0,2.5 -0.277412,0.6875 -0.504386,0.125 -0.504386,-1.25 z M 27.955065,25.529543 C 24.578756,22.107409 17.947084,19.726607 14.679717,20.76363 c -1.091564,0.346449 -2.924974,1.607251 -4.074243,2.801783 l -2.0895809,2.171875 1.146328,-2.227082 c 2.2170999,-4.307374 8.1167689,-5.556229 13.3504909,-2.82606 2.616322,1.364803 2.75,1.323427 2.75,-0.851174 0,-1.25714 0.9,-3.100198 2,-4.095684 2.452693,-2.219657 2.638443,-5.5 0.311439,-5.5 -1.379126,0 -1.254357,-0.4045229 0.680851,-2.2074442 1.570128,-1.4627965 2.505185,-1.8001313 2.771895,-1 0.221365,0.6640944 1.039982,1.2074443 1.819148,1.2074443 0.779167,0 1.416667,0.45 1.416667,1 0,0.55 -0.675,0.9999999 -1.5,0.9999999 -1.977945,0 -1.938775,3.617649 0.04742,4.379824 0.851083,0.326591 2.011524,1.925123 2.578759,3.552294 0.918639,2.635209 1.303026,2.855196 3.517677,2.013187 1.36749,-0.519918 3.772522,-0.945305 5.344518,-0.945305 3.288464,0 9.01892,4.35595 8.99688,6.838894 -0.01,1.117353 -0.42867,0.842747 -1.27926,-0.838894 -0.69549,-1.375 -2.548778,-3.115776 -4.118424,-3.86839 -3.847123,-1.844622 -9.891927,-0.03728 -14.109087,4.21848 l -3.121338,3.14991 z"
     id="path3047"
     inkscape:connector-curvature="0" />
</svg>
