<?xml version="1.0" encoding="UTF-8" standalone="no"?>
<!-- Created with Inkscape (http://www.inkscape.org/) -->

<svg
   xmlns:dc="http://purl.org/dc/elements/1.1/"
   xmlns:cc="http://creativecommons.org/ns#"
   xmlns:rdf="http://www.w3.org/1999/02/22-rdf-syntax-ns#"
   xmlns:svg="http://www.w3.org/2000/svg"
   xmlns="http://www.w3.org/2000/svg"
   xmlns:sodipodi="http://sodipodi.sourceforge.net/DTD/sodipodi-0.dtd"
   xmlns:inkscape="http://www.inkscape.org/namespaces/inkscape"
   version="1.1"
   id="svg815"
   width="60"
   height="60"
   viewBox="0 0 60 60"
   sodipodi:docname="blackBishop.svg"
   inkscape:version="0.92.3 (2405546, 2018-03-11)">
  <metadata
     id="metadata821">
    <rdf:RDF>
      <cc:Work
         rdf:about="">
        <dc:format>image/svg+xml</dc:format>
        <dc:type
           rdf:resource="http://purl.org/dc/dcmitype/StillImage" />
        <dc:title></dc:title>
      </cc:Work>
    </rdf:RDF>
  </metadata>
  <defs
     id="defs819" />
  <sodipodi:namedview
     pagecolor="#ffffff"
     bordercolor="#666666"
     borderopacity="1"
     objecttolerance="10"
     gridtolerance="10"
     guidetolerance="10"
     inkscape:pageopacity="0"
     inkscape:pageshadow="2"
     inkscape:window-width="1920"
     inkscape:window-height="1017"
     id="namedview817"
     showgrid="false"
     inkscape:zoom="14.133333"
     inkscape:cx="30"
     inkscape:cy="30"
     inkscape:window-x="1358"
     inkscape:window-y="-8"
     inkscape:window-maximized="1"
     inkscape:current-layer="svg815" />
  <path
     style="fill:#000000"
     d="m 8.1027833,51.355327 c -1.979841,-2.385561 1.221539,-4.027645 9.1601577,-4.698522 6.887015,-0.582007 7.059129,-0.658729 4.416304,-1.968609 -1.5125,-0.749649 -2.75,-1.965767 -2.75,-2.702484 0,-1.038132 2.474741,-1.339485 11,-1.339485 9.190471,0 11,0.250826 11,1.524751 0,0.838613 -1.2375,2.072448 -2.75,2.741855 -2.562,1.133899 -2.305636,1.237942 3.75,1.521911 4.565209,0.214078 7.244151,0.884048 9,2.250786 2.126813,1.655494 2.276088,2.099517 1,2.974532 -0.825,0.565703 -2.969874,0.77224 -4.766386,0.458971 -4.403248,-0.767822 -30.36546,-0.726299 -34.531359,0.05523 -2.304013,0.432234 -3.6998157,0.179829 -4.5287167,-0.818936 z M 20.474479,36.322024 c 0.370269,-1.475272 0.01197,-2.798394 -0.980948,-3.622445 -0.994517,-0.825375 -1.564286,-2.935555 -1.564286,-5.793444 0,-3.965242 0.497979,-4.982385 4.223931,-8.627555 3.000918,-2.935856 4.231478,-4.965957 4.25,-7.011379 0.01474,-1.6274763 0.786817,-3.3641053 1.776069,-3.9948863 2.609129,-1.6636683 5.250939,0.428662 5.245887,4.1547753 -0.003,2.181092 0.752067,3.541595 2.687234,4.842212 3.017581,2.028101 6.818838,8.17263 6.813141,11.01308 -0.0021,1.025115 -0.849615,3.25099 -1.883465,4.946389 -1.318674,2.162478 -1.601203,3.580239 -0.946572,4.75 0.8452,1.510289 -0.06301,1.667456 -9.635587,1.667456 -10.560809,0 -10.568304,-0.0017 -9.985404,-2.324203 z m 16.954766,-1.675797 c -0.339919,-0.55 -3.741476,-1 -7.559017,-1 -3.960655,0 -6.940983,0.429381 -6.940983,1 0,0.578472 3.186339,1 7.559017,1 4.784701,0 7.332186,-0.367021 6.940983,-1 z m -4.532224,-10 c 0.567723,0 1.032224,-0.45 1.032224,-1 0,-0.55 -0.675,-1 -1.5,-1 -0.825,0 -1.5,-0.675 -1.5,-1.5 0,-0.825 -0.45,-1.5 -1,-1.5 -0.55,0 -1,0.675 -1,1.5 0,0.825 -0.675,1.5 -1.5,1.5 -0.825,0 -1.5,0.45 -1.5,1 0,0.55 0.622516,1 1.383369,1 0.760852,0 1.68383,1.0125 2.051061,2.25 l 0.667692,2.25 0.916715,-2.25 c 0.504193,-1.2375 1.381215,-2.25 1.948939,-2.25 z"
     id="path825"
     inkscape:connector-curvature="0" />
</svg>
