<?xml version="1.0" encoding="UTF-8" standalone="no"?>
<!-- Created with Inkscape (http://www.inkscape.org/) -->

<svg
   xmlns:dc="http://purl.org/dc/elements/1.1/"
   xmlns:cc="http://creativecommons.org/ns#"
   xmlns:rdf="http://www.w3.org/1999/02/22-rdf-syntax-ns#"
   xmlns:svg="http://www.w3.org/2000/svg"
   xmlns="http://www.w3.org/2000/svg"
   xmlns:sodipodi="http://sodipodi.sourceforge.net/DTD/sodipodi-0.dtd"
   xmlns:inkscape="http://www.inkscape.org/namespaces/inkscape"
   version="1.1"
   id="svg4159"
   width="60"
   height="60"
   viewBox="0 0 60 60"
   sodipodi:docname="whiteQueen.svg"
   inkscape:version="0.92.3 (2405546, 2018-03-11)">
  <metadata
     id="metadata4165">
    <rdf:RDF>
      <cc:Work
         rdf:about="">
        <dc:format>image/svg+xml</dc:format>
        <dc:type
           rdf:resource="http://purl.org/dc/dcmitype/StillImage" />
        <dc:title></dc:title>
      </cc:Work>
    </rdf:RDF>
  </metadata>
  <defs
     id="defs4163" />
  <sodipodi:namedview
     pagecolor="#ffffff"
     bordercolor="#666666"
     borderopacity="1"
     objecttolerance="10"
     gridtolerance="10"
     guidetolerance="10"
     inkscape:pageopacity="0"
     inkscape:pageshadow="2"
     inkscape:window-width="1920"
     inkscape:window-height="1017"
     id="namedview4161"
     showgrid="false"
     inkscape:zoom="3.9333333"
     inkscape:cx="30"
     inkscape:cy="30"
     inkscape:window-x="1358"
     inkscape:window-y="-8"
     inkscape:window-maximized="1"
     inkscape:current-layer="svg4159" />
  <path
     style="fill:#000000"
     d="m 17.754707,52.591332 c -5.174352,-0.691064 -5.986978,-2.307817 -3.539178,-7.04134 1.521963,-2.943152 1.481442,-3.236378 -0.939604,-6.799267 -1.391589,-2.047907 -2.530162,-4.369647 -2.530162,-5.159421 0,-0.789773 -0.493308,-4.268734 -1.0962389,-7.731022 -0.8226564,-4.724041 -1.5713524,-6.445866 -3.0000004,-6.899301 -2.636171,-0.836688 -2.532582,-5.1351 0.144227,-5.984686 2.7067434,-0.859087 5.2191173,1.310179 4.5643733,3.941028 -0.32564,1.308464 0.749808,4.104654 2.913128,7.574203 l 3.429339,5.5 -0.0092,-7.5 c -0.006,-4.868022 -0.500349,-8.148238 -1.408731,-9.347199 -2.305689,-3.043249 0.348479,-6.4014959 3.96312,-5.014428 1.630206,0.6255687 2.064377,4.894789 0.590432,5.805737 -0.500263,0.30918 0.254462,3.496013 1.677166,7.081851 1.422703,3.585839 2.896216,6.171932 3.274473,5.746873 1.424402,-1.600646 3.18725,-13.696394 2.051312,-14.07504 -0.601378,-0.200453 -1.0934,-1.421636 -1.0934,-2.7137403 0,-3.0289121 3.577495,-4.335131 5.796281,-2.1163447 1.331212,1.3312124 1.374001,1.9455987 0.278109,3.993291 -1.056481,1.974053 -1.059905,3.736417 -0.01858,9.563318 0.702117,3.928811 1.581624,6.790581 1.954459,6.359488 0.372835,-0.431093 1.681227,-3.324283 2.907538,-6.429311 1.87064,-4.736475 2.026198,-5.971293 0.966088,-7.668799 -2.305816,-3.6921993 2.361305,-7.0050266 5.144395,-3.651607 1.003453,1.209086 1.018096,2.01072 0.06912,3.7839 -0.693826,1.296426 -1.075524,4.989901 -0.900736,8.715911 l 0.303326,6.4661 2.952602,-5 c 1.723845,-2.919197 2.84078,-6.107667 2.683902,-7.661634 -0.31252,-3.095708 2.993408,-4.805364 5.411484,-2.79854 2.047719,1.699457 1.804138,3.600127 -0.684791,5.343441 -1.622141,1.136192 -2.476366,3.462923 -3.546616,9.660248 -0.827772,4.793246 -2.259713,9.313124 -3.468433,10.948006 -1.837044,2.484734 -1.922941,3.159647 -0.798051,6.270474 0.693312,1.917322 1.005662,4.150315 0.694111,4.962206 -0.945278,2.463353 -16.656195,3.488834 -28.735264,1.875605 z m 22.402311,-1.742696 c 4.008406,-0.549414 4.646657,-0.943346 4.389571,-2.709276 -0.422558,-2.902563 -6.056039,-3.930743 -18.188154,-3.319561 -9.703966,0.488859 -11.556409,1.18502 -11.597359,4.358369 -0.02482,1.923052 15.907362,2.971022 25.395942,1.670468 z m 2.588856,-8.990614 c -1.27e-4,-1.299015 -9.234235,-2.053267 -18.750111,-1.53153 -3.88195,0.21284 -6.24984,0.782633 -6.249578,1.503855 2.97e-4,0.819618 3.677202,1.161179 12.500111,1.161179 8.648002,0 12.499655,-0.349281 12.499578,-1.133504 z m 2.941113,-4.795675 c 0.988508,-1.191079 0.452048,-1.53926 -3.220057,-2.089926 -5.338481,-0.800554 -27.287408,-0.254508 -28.240686,0.702574 -2.126242,2.134727 1.615251,2.816531 15.456091,2.816531 11.625724,0 15.0741,-0.307932 16.004652,-1.429179 z M 16.102236,32.723758 c 0.260978,-0.422272 -0.610158,-2.559772 -1.93586,-4.75 -2.432014,-4.017997 -2.94188,-3.338569 -1.795613,2.392768 0.576928,2.884638 2.611267,4.169763 3.731473,2.357232 z m 31.947666,-3.463091 c 0.312112,-2.326972 0.427149,-4.371186 0.255638,-4.542698 -0.655194,-0.655194 -4.554243,6.973494 -4.01233,7.850327 1.401841,2.268228 3.224,0.663884 3.756692,-3.307629 z M 24.745763,32.1614 c 0,-0.18157 -1.105979,-2.99407 -2.457731,-6.25 l -2.457731,-5.919874 -0.04227,6.25 c -0.04065,6.011272 0.05322,6.25 2.457731,6.25 1.375,0 2.5,-0.148557 2.500001,-0.330126 z m 7.956365,-0.919874 c -0.024,-0.6875 -0.621208,-3.95 -1.327132,-7.25 l -1.283496,-6 -1.172869,5.299221 c -1.762702,7.964194 -1.584336,9.200779 1.327132,9.200779 1.375,0 2.480364,-0.5625 2.456365,-1.25 z m 7.960403,-5 -0.08323,-6.25 -2.355396,5 c -3.027451,6.426621 -3.024322,7.5 0.02186,7.5 2.408878,0 2.496966,-0.227805 2.416768,-6.25 z m -31.7667683,-10.25 c 0,-0.5225 -0.48375,-1.11125 -1.075,-1.308333 -0.59125,-0.197084 -1.075,0.391666 -1.075,1.308333 0,0.916667 0.48375,1.505417 1.075,1.308333 0.59125,-0.197083 1.075,-0.785833 1.075,-1.308333 z m 44.0000003,0 c 0,-0.5225 -0.48375,-1.11125 -1.075,-1.308333 -0.59125,-0.197084 -1.075,0.391666 -1.075,1.308333 0,0.916667 0.48375,1.505417 1.075,1.308333 0.59125,-0.197083 1.075,-0.785833 1.075,-1.308333 z m -10.15,-4 c 0,-0.825 -0.423442,-1.5 -0.940983,-1.5 -1.260978,0 -2.164095,1.561589 -1.365164,2.36052 1.126184,1.126184 2.306147,0.68589 2.306147,-0.86052 z m -23,-1 c 0,-0.825 -0.45,-1.5000006 -1,-1.5000006 -0.55,0 -1,0.6750006 -1,1.5000006 0,0.825 0.45,1.5 1,1.5 0.55,0 1,-0.675 1,-1.5 z m 11.15,-1.0000003 c 0,-0.5225003 -0.48375,-1.1112503 -1.075,-1.3083336 -0.59125,-0.1970834 -1.075,0.3916666 -1.075,1.3083336 0,0.9166673 0.48375,1.5054173 1.075,1.3083333 0.59125,-0.197083 1.075,-0.785833 1.075,-1.3083333 z"
     id="path4712"
     inkscape:connector-curvature="0" />
</svg>
