<?xml version="1.0" encoding="UTF-8" standalone="no"?>
<!-- Created with Inkscape (http://www.inkscape.org/) -->

<svg
   xmlns:dc="http://purl.org/dc/elements/1.1/"
   xmlns:cc="http://creativecommons.org/ns#"
   xmlns:rdf="http://www.w3.org/1999/02/22-rdf-syntax-ns#"
   xmlns:svg="http://www.w3.org/2000/svg"
   xmlns="http://www.w3.org/2000/svg"
   xmlns:sodipodi="http://sodipodi.sourceforge.net/DTD/sodipodi-0.dtd"
   xmlns:inkscape="http://www.inkscape.org/namespaces/inkscape"
   version="1.1"
   id="svg5271"
   width="60"
   height="60"
   viewBox="0 0 60 60"
   sodipodi:docname="whiteRook.svg"
   inkscape:version="0.92.3 (2405546, 2018-03-11)">
  <metadata
     id="metadata5277">
    <rdf:RDF>
      <cc:Work
         rdf:about="">
        <dc:format>image/svg+xml</dc:format>
        <dc:type
           rdf:resource="http://purl.org/dc/dcmitype/StillImage" />
        <dc:title></dc:title>
      </cc:Work>
    </rdf:RDF>
  </metadata>
  <defs
     id="defs5275" />
  <sodipodi:namedview
     pagecolor="#ffffff"
     bordercolor="#666666"
     borderopacity="1"
     objecttolerance="10"
     gridtolerance="10"
     guidetolerance="10"
     inkscape:pageopacity="0"
     inkscape:pageshadow="2"
     inkscape:window-width="1920"
     inkscape:window-height="1017"
     id="namedview5273"
     showgrid="false"
     inkscape:zoom="3.9333333"
     inkscape:cx="30"
     inkscape:cy="30"
     inkscape:window-x="1358"
     inkscape:window-y="-8"
     inkscape:window-maximized="1"
     inkscape:current-layer="svg5271" />
  <path
     style="fill:#000000"
     d="m 12.920903,51.333332 c -1.413729,-1.413728 -0.586881,-4.541437 1.333333,-5.043584 1.1959,-0.312735 2.012787,-1.380733 2.031803,-2.65638 0.01749,-1.173353 0.692492,-3.006877 1.5,-4.074499 0.993971,-1.314146 1.468197,-4.413326 1.468197,-9.595012 0,-6.383891 -0.331856,-7.954208 -2,-9.463858 -1.415426,-1.280942 -2,-3.079967 -2,-6.154988 0,-4.299061 0.03701,-4.3450116 3.5,-4.3450116 2.444444,0 3.5,0.4523806 3.5,1.4999996 0,0.933333 0.944444,1.5 2.5,1.5 1.555556,0 2.5,-0.566667 2.5,-1.5 0,-2.0925856 7.558625,-2.0925856 8.361626,0 0.74542,1.942531 4.254581,1.942531 5,0 0.330197,-0.860479 1.823245,-1.4999996 3.501954,-1.4999996 2.687795,0 2.9577,0.3287486 3.310937,4.0327856 0.306236,3.211188 -0.07982,4.469078 -1.894965,6.174314 -1.986677,1.866387 -2.279552,3.122408 -2.279552,9.776084 0,5.164693 0.474978,8.262534 1.468197,9.575686 0.807508,1.067622 1.482508,2.95363 1.5,4.19113 0.02223,1.572732 0.633819,2.25 2.031803,2.25 1.555556,0 2,0.666667 2,3 v 3 H 31.920903 c -10.083334,0 -18.633334,-0.3 -19,-0.666667 z m 35.333333,-2.333333 c 0,-0.627451 -6.333333,-1 -17,-1 -10.666667,0 -17,0.372549 -17,1 0,0.627451 6.333333,1 17,1 10.666667,0 17,-0.372549 17,-1 z m -4,-4.5 c 0,-1.25641 -2.111111,-1.5 -13,-1.5 -10.888889,0 -13,0.24359 -13,1.5 0,1.25641 2.111111,1.5 13,1.5 10.888889,0 13,-0.24359 13,-1.5 z m -2.25,-4.75 c -0.297491,-0.892473 -3.372222,-1.25 -10.75,-1.25 -7.377778,0 -10.452509,0.357527 -10.75,1.25 -0.31675,0.950249 2.261111,1.25 10.75,1.25 8.488889,0 11.06675,-0.299751 10.75,-1.25 z m -0.75,-10.25 v -7.5 h -10 -10 v 7.5 7.5 h 10 10 z m 1.5,-9.5 c 0.399036,-0.645653 -3.675955,-1 -11.5,-1 -7.824045,0 -11.899036,0.354347 -11.5,1 0.350759,0.56754 5.324045,1 11.5,1 6.175955,0 11.149241,-0.43246 11.5,-1 z m 2.5,-5.5 c 0,-2.745631 -2.415977,-3.464324 -3.361626,-1 -0.775226,2.020205 -7.224775,2.020205 -8,0 -0.316583,-0.825 -1.441583,-1.5 -2.5,-1.5 -1.058418,0 -2.183418,0.675 -2.5,1.5 -0.779375,2.031017 -7.497373,2.031017 -8.276748,0 -0.945649,-2.464324 -3.361626,-1.745631 -3.361626,1 v 2.5 h 14 14 z"
     id="path5826"
     inkscape:connector-curvature="0" />
</svg>
