<?xml version="1.0" encoding="UTF-8" standalone="no"?>
<!-- Created with Inkscape (http://www.inkscape.org/) -->

<svg
   xmlns:dc="http://purl.org/dc/elements/1.1/"
   xmlns:cc="http://creativecommons.org/ns#"
   xmlns:rdf="http://www.w3.org/1999/02/22-rdf-syntax-ns#"
   xmlns:svg="http://www.w3.org/2000/svg"
   xmlns="http://www.w3.org/2000/svg"
   xmlns:sodipodi="http://sodipodi.sourceforge.net/DTD/sodipodi-0.dtd"
   xmlns:inkscape="http://www.inkscape.org/namespaces/inkscape"
   version="1.1"
   id="svg888"
   width="60"
   height="60"
   viewBox="0 0 60 60"
   sodipodi:docname="whiteKnight.svg"
   inkscape:version="0.92.3 (2405546, 2018-03-11)">
  <metadata
     id="metadata894">
    <rdf:RDF>
      <cc:Work
         rdf:about="">
        <dc:format>image/svg+xml</dc:format>
        <dc:type
           rdf:resource="http://purl.org/dc/dcmitype/StillImage" />
        <dc:title></dc:title>
      </cc:Work>
    </rdf:RDF>
  </metadata>
  <defs
     id="defs892" />
  <sodipodi:namedview
     pagecolor="#ffffff"
     bordercolor="#666666"
     borderopacity="1"
     objecttolerance="10"
     gridtolerance="10"
     guidetolerance="10"
     inkscape:pageopacity="0"
     inkscape:pageshadow="2"
     inkscape:window-width="1920"
     inkscape:window-height="1017"
     id="namedview890"
     showgrid="false"
     inkscape:zoom="3.9333333"
     inkscape:cx="30"
     inkscape:cy="30"
     inkscape:window-x="1358"
     inkscape:window-y="-8"
     inkscape:window-maximized="1"
     inkscape:current-layer="svg888" />
  <path
     style="fill:#1b1b1b"
     d="m 18.603639,48.833512 c 0.34831,-1.741568 1.86706,-4.702699 3.375,-6.580292 5.29569,-6.593875 6.08279,-7.773579 6.77428,-10.153192 l 0.69739,-2.399972 -3.23571,2.304029 c -1.77964,1.267216 -4.74804,3.816356 -6.59643,5.664756 -3.04539,3.045384 -3.74121,3.299886 -7.415606,2.712326 -4.1294757,-0.66033 -5.9822237,-2.569599 -5.9822237,-6.164723 0,-2.110959 6.3256157,-14.661787 8.8327297,-17.525271 0.87105,-0.994855 1.48512,-3.102772 1.36462,-4.684261 -0.2717,-3.5656999 1.3608,-4.7167529 3.6944,-2.6048729 2.20228,1.9930319 3.51459,2.0181979 5.10825,0.09796 1.67137,-2.013883 3.66221,-1.896179 4.22845,0.25 0.27613,1.0465869 2.27901,2.2809329 4.98291,3.0708929 9.66034,2.822325 15.23322,13.047051 16.44936,30.180151 l 0.63876,8.998956 h -16.77474 -16.77474 z m 30.17094,-6.90419 c -1.04696,-12.002054 -3.05839,-17.696632 -7.99423,-22.632474 -3.13089,-3.130888 -5.31579,-4.394067 -8.47382,-4.899056 -3.02498,-0.483713 -4.49092,-1.290074 -5.07053,-2.789113 -0.71166,-1.8405379 -0.90149,-1.8959799 -1.49282,-0.435998 -1.04454,2.578941 -3.60016,3.060988 -5.83935,1.101429 -1.115,-0.97576 -1.69005,-1.19815 -1.27788,-0.494199 0.44771,0.764654 -1.06856,4.387806 -3.76644,9 C 9.3885463,30.132834 7.9821163,33.674065 8.7622603,36.132082 9.3744343,38.060871 12.220339,38.775144 12.220339,37 c 0,-0.55 0.675,-1 1.5,-1 0.825,0 1.5,0.724853 1.5,1.610784 0,1.351684 0.28149,1.297063 1.75,-0.339573 0.9625,-1.072696 4.11496,-3.866512 7.00547,-6.20848 2.89051,-2.341968 5.52679,-5.339161 5.85841,-6.660428 1.09984,-4.382119 2.53267,-2.579837 1.86644,2.347697 -1.01734,7.524334 -2.30486,10.709348 -5.59271,13.835055 -2.72236,2.588101 -5.88761,7.354181 -5.88761,8.865285 0,0.302313 6.58311,0.54966 14.62912,0.54966 h 14.62913 z M 10.803288,34.134215 c -0.430771,-0.697003 -0.513159,-1.537338 -0.183085,-1.867413 0.894961,-0.894961 1.870768,0.421303 1.387387,1.871444 -0.338725,1.016175 -0.574267,1.015386 -1.204302,-0.004 z m 6.268041,-14.260449 c 1.17527,-3.17705 3.40803,-3.734922 2.98316,-0.745364 -0.18378,1.293142 -1.11918,2.500784 -2.07866,2.683649 -1.4281,0.272179 -1.59215,-0.07937 -0.9045,-1.938285 z"
     id="path1441"
     inkscape:connector-curvature="0" />
  <path
     style="fill:none;stroke:#000000;stroke-width:1px;stroke-linecap:butt;stroke-linejoin:miter;stroke-opacity:1"
     d="M 13.927502,18.88355 7.9133524,13.364682 16.050144,15.416569 Z"
     id="path851"
     inkscape:connector-curvature="0" />
  <path
     style="opacity:0.92000002;fill:#ff00ff;stroke:#000024;stroke-width:0;stroke-miterlimit:4;stroke-dasharray:none;stroke-dashoffset:0;stroke-opacity:1"
     d="M 11.943707,16.158993 C 10.99,15.269658 10.510666,14.676348 10.805085,14.749627 c 0.279661,0.06961 1.309322,0.320226 2.288135,0.556932 0.978814,0.236707 1.821313,0.46448 1.872221,0.506163 0.135683,0.111096 -0.99278,1.882193 -1.199249,1.882193 -0.09646,0 -0.916581,-0.691165 -1.822485,-1.535922 z"
     id="path1458"
     inkscape:connector-curvature="0" />
  <path
     style="opacity:0.92000002;fill:#ff00ff;stroke:#000024;stroke-width:0;stroke-miterlimit:4;stroke-dasharray:none;stroke-dashoffset:0;stroke-opacity:1"
     d=""
     id="path1460"
     inkscape:connector-curvature="0" />
  <path
     style="opacity:0.92000002;fill:#ff00ff;stroke:#000024;stroke-width:0;stroke-miterlimit:4;stroke-dasharray:none;stroke-dashoffset:0;stroke-opacity:1"
     d=""
     id="path1462"
     inkscape:connector-curvature="0" />
  <path
     style="opacity:0.92000002;fill:#ffffff;stroke:#000024;stroke-width:0;stroke-miterlimit:4;stroke-dasharray:none;stroke-dashoffset:0;stroke-opacity:1"
     d="m 26.129359,49.734242 c -3.037751,-0.08908 -5.60488,-0.243661 -5.704731,-0.343513 -0.09985,-0.09985 0.08025,-0.722469 0.400218,-1.383595 1.038094,-2.144924 2.74316,-4.48242 5.236616,-7.178939 3.557833,-3.847579 4.620805,-6.361898 5.608994,-13.267331 0.445891,-3.115867 0.351676,-5.026185 -0.273474,-5.545013 -0.535461,-0.444393 -0.780876,-0.163669 -1.502661,1.718859 -0.915721,2.388343 -2.454955,4.160426 -7.012965,8.073856 -2.167373,1.86087 -4.623537,4.080037 -5.458143,4.931486 -1.688077,1.722137 -2.168976,1.905005 -2.168976,0.824776 0,-0.988088 -0.757849,-1.620859 -1.819439,-1.519149 -0.679077,0.06506 -0.923201,0.247632 -1.21373,0.907711 -0.298836,0.678951 -0.50567,0.826271 -1.160062,0.826271 -1.0867464,0 -2.1598261,-1.143257 -2.3410134,-2.494108 -0.2684405,-2.001373 1.7264134,-6.740712 5.6124744,-13.334023 2.036015,-3.454418 4.250608,-8.140767 4.410557,-9.33328 l 0.1341,-0.999786 1.140752,0.871029 c 2.419166,1.847171 4.799467,1.286764 5.908679,-1.391111 0.386968,-0.934223 0.565077,-0.848339 1.272876,0.613779 0.717554,1.482269 1.719881,2.06743 4.620123,2.697242 2.981041,0.647358 4.654194,1.405452 6.706924,3.038858 5.311871,4.226783 8.098037,9.647485 9.39419,18.277114 0.325663,2.168233 1.396403,12.827647 1.400263,13.939879 0.0013,0.347731 -12.425477,0.384697 -23.191572,0.06899 z M 11.940207,34.49129 c 0.648043,-1.210878 0.09273,-2.70869 -0.932231,-2.514439 -0.615961,0.116737 -0.746984,1.575897 -0.21448,2.3886 0.488681,0.745821 0.796811,0.779635 1.146711,0.125839 z m 6.462149,-12.71723 c 1.807815,-0.68733 2.49798,-4.587619 0.81179,-4.587619 -0.776198,0 -1.769715,1.23038 -2.336346,2.893349 -0.614371,1.803081 -0.142096,2.32793 1.524556,1.69427 z"
     id="path1468"
     inkscape:connector-curvature="0" />
  <path
     style="opacity:0.92000002;fill:#ffffff;stroke:#000024;stroke-width:0;stroke-miterlimit:4;stroke-dasharray:none;stroke-dashoffset:0;stroke-opacity:1"
     d="m 25.872085,49.731819 c -2.89959,-0.09109 -5.352999,-0.246631 -5.45202,-0.345651 -0.25548,-0.255481 1.037934,-2.802735 2.382047,-4.691212 0.626983,-0.880912 1.96336,-2.482607 2.969727,-3.559322 3.429648,-3.669397 4.32523,-5.436442 5.39667,-10.648011 0.818088,-3.979241 0.96019,-7.719488 0.317752,-8.363516 -0.592923,-0.594392 -0.844419,-0.339671 -1.590208,1.610603 -0.913389,2.388559 -2.54897,4.26479 -7.211458,8.272511 -2.198985,1.890176 -4.623483,4.076637 -5.387775,4.8588 -1.562691,1.599234 -2.042583,1.763413 -2.042583,0.698807 0,-0.988088 -0.757849,-1.620859 -1.819439,-1.519149 -0.679077,0.06506 -0.923201,0.247632 -1.21373,0.907711 -0.492137,1.118125 -1.642598,1.153858 -2.6686558,0.08288 -1.8667384,-1.948456 -0.9011611,-5.088558 4.4863368,-14.589776 2.806432,-4.949332 4.442234,-8.367054 4.661769,-9.739947 l 0.16675,-1.042802 1.256019,0.845238 c 2.420188,1.628666 4.231723,1.318362 5.525199,-0.94643 0.538501,-0.942881 0.771656,-1.159364 1.001308,-0.929712 0.164647,0.164647 0.299359,0.444106 0.299359,0.62102 0,0.594189 1.522239,2.062532 2.574881,2.483716 0.573642,0.229526 1.859262,0.588179 2.856934,0.797007 2.44307,0.511371 4.518755,1.540292 6.577833,3.260643 5.058717,4.226539 7.720177,9.544254 8.974146,17.930739 0.33295,2.226761 1.382573,12.677311 1.387251,13.812166 0.0018,0.41626 -0.583528,0.442159 -9.087147,0.402104 C 35.23411,49.916697 28.771676,49.822904 25.872085,49.731819 Z M 12.06179,34.136005 c 0.359232,-1.016428 -0.0908,-2.076683 -0.881472,-2.076683 -0.522042,0 -0.642888,0.138619 -0.708091,0.81223 -0.08503,0.878494 0.602753,2.19076 1.067402,2.036554 0.155323,-0.05155 0.390295,-0.398993 0.522161,-0.772101 z m 6.364695,-12.416947 c 1.046442,-0.476791 1.699677,-1.770854 1.609053,-3.187543 -0.07437,-1.162604 -0.112113,-1.217956 -0.830496,-1.217956 -0.851232,0 -1.581421,0.884206 -2.31375,2.801783 -0.667969,1.749052 -0.09574,2.34682 1.535193,1.603716 z"
     id="path1470"
     inkscape:connector-curvature="0" />
</svg>
