<?xml version="1.0" encoding="UTF-8" standalone="no"?>
<!-- Created with Inkscape (http://www.inkscape.org/) -->

<svg
   xmlns:dc="http://purl.org/dc/elements/1.1/"
   xmlns:cc="http://creativecommons.org/ns#"
   xmlns:rdf="http://www.w3.org/1999/02/22-rdf-syntax-ns#"
   xmlns:svg="http://www.w3.org/2000/svg"
   xmlns="http://www.w3.org/2000/svg"
   xmlns:sodipodi="http://sodipodi.sourceforge.net/DTD/sodipodi-0.dtd"
   xmlns:inkscape="http://www.inkscape.org/namespaces/inkscape"
   version="1.1"
   id="svg3049"
   width="60"
   height="60"
   viewBox="0 0 60 60"
   sodipodi:docname="whiteKing.svg"
   inkscape:version="0.92.3 (2405546, 2018-03-11)">
  <metadata
     id="metadata3055">
    <rdf:RDF>
      <cc:Work
         rdf:about="">
        <dc:format>image/svg+xml</dc:format>
        <dc:type
           rdf:resource="http://purl.org/dc/dcmitype/StillImage" />
        <dc:title></dc:title>
      </cc:Work>
    </rdf:RDF>
  </metadata>
  <defs
     id="defs3053" />
  <sodipodi:namedview
     pagecolor="#ffffff"
     bordercolor="#666666"
     borderopacity="1"
     objecttolerance="10"
     gridtolerance="10"
     guidetolerance="10"
     inkscape:pageopacity="0"
     inkscape:pageshadow="2"
     inkscape:window-width="1920"
     inkscape:window-height="1017"
     id="namedview3051"
     showgrid="false"
     inkscape:zoom="3.9333333"
     inkscape:cx="30"
     inkscape:cy="30"
     inkscape:window-x="1358"
     inkscape:window-y="-8"
     inkscape:window-maximized="1"
     inkscape:current-layer="svg3049" />
  <path
     style="fill:#000000"
     d="M 19.75,51.145851 15,49.685243 v -5.118721 c 0,-4.535842 -0.398552,-5.50579 -3.5,-8.517878 -4.4769504,-4.347959 -4.8401434,-9.564797 -0.957558,-13.754176 2.173138,-2.344855 3.153615,-2.681285 6.75,-2.316119 2.314157,0.234972 4.941427,0.75633 5.838379,1.158574 1.228238,0.55081 1.895394,-0.0276 2.702578,-2.343092 0.589466,-1.690943 1.768096,-3.341653 2.619179,-3.668244 1.986197,-0.762175 2.025367,-4.379824 0.04742,-4.379824 -0.825,0 -1.5,-0.45 -1.5,-1.0000003 0,-0.55 0.6375,-1 1.416667,-1 0.779166,0 1.679166,-0.5625 2,-1.25 0.466666,-1 0.7,-1 1.166666,0 0.320834,0.6875 1.220834,1.25 2,1.25 0.779167,0 1.416667,0.45 1.416667,1 0,0.5500003 -0.675,1.0000003 -1.5,1.0000003 -2.154874,0 -1.848052,3.375042 0.5,5.5 1.1,0.995486 2,2.629093 2,3.630237 0,1.540731 0.393913,1.670496 2.5651,0.845012 9.443103,-3.590261 18.181265,3.813184 14.013413,11.872924 -0.851585,1.646783 -2.905125,3.96027 -4.563424,5.141083 -2.650155,1.887077 -3.015089,2.739181 -3.015089,7.040098 v 4.893165 l -5.181501,1.53874 c -6.371591,1.89216 -13.789666,1.869548 -20.068499,-0.06117 z M 38.6849,49.63563 c 2.615682,-1.031493 2.673423,-1.168191 0.8151,-1.929715 -2.598952,-1.065027 -16.413803,-1.061301 -19,0.0051 -1.905485,0.785732 -1.881856,0.87393 0.5,1.866328 3.360559,1.400175 14.191567,1.435857 17.6849,0.05826 z M 30,45.245763 c 4.125,0 8.7375,0.346073 10.25,0.769052 C 42.338058,46.598752 43,46.435288 43,45.335713 43,42.008508 24.451222,40.828357 18.894843,43.802042 15.982373,45.360748 16.577969,46.90189 19.75,46.014815 21.2625,45.591836 25.875,45.245763 30,45.245763 Z m 0,-5 c 2.475,0 6.4125,0.342818 8.75,0.761818 4.885343,0.875703 5.879311,-0.689122 1.5,-2.361483 -3.55433,-1.35732 -16.94567,-1.35732 -20.5,0 -4.379311,1.672361 -3.385343,3.237186 1.5,2.361483 2.3375,-0.419 6.275,-0.761818 8.75,-0.761818 z m -5.666722,-4.256314 c 5.756598,-0.612368 6.697289,-2.174566 4.153619,-6.897876 -3.675607,-6.825188 -13.628537,-9.837079 -16.930193,-5.123304 -2.4761784,3.53524 -1.9393614,7.548683 1.465024,10.953068 2.108497,2.108497 3.544049,2.804209 4.75,2.301995 0.95055,-0.395854 3.903247,-0.951101 6.56155,-1.233883 z M 48.6,34.345763 c 4.029104,-4.029104 4.287629,-6.80328 0.945455,-10.145455 C 43.675653,18.330507 32,23.832435 32,32.468269 c 0,3.016601 0.258704,3.283089 3.25,3.347779 1.7875,0.03866 4.15,0.457029 5.25,0.929715 3.405497,1.463392 4.58655,1.11345 8.1,-2.4 z M 34,21.716767 c 0,-5.146958 -4.155249,-6.919136 -6.118798,-2.609616 -0.840583,1.844878 -0.698311,3.091604 0.65044,5.699801 l 1.726361,3.338414 1.870998,-2.310586 C 33.158051,24.563958 34,22.710852 34,21.716767 Z"
     id="path3602"
     inkscape:connector-curvature="0" />
</svg>
