<?xml version="1.0" encoding="UTF-8" standalone="no"?>
<!-- Created with Inkscape (http://www.inkscape.org/) -->

<svg
   xmlns:dc="http://purl.org/dc/elements/1.1/"
   xmlns:cc="http://creativecommons.org/ns#"
   xmlns:rdf="http://www.w3.org/1999/02/22-rdf-syntax-ns#"
   xmlns:svg="http://www.w3.org/2000/svg"
   xmlns="http://www.w3.org/2000/svg"
   xmlns:sodipodi="http://sodipodi.sourceforge.net/DTD/sodipodi-0.dtd"
   xmlns:inkscape="http://www.inkscape.org/namespaces/inkscape"
   version="1.1"
   id="svg827"
   width="60"
   height="60"
   viewBox="0 0 60 60"
   sodipodi:docname="whiteBishop.svg"
   inkscape:version="0.92.3 (2405546, 2018-03-11)">
  <metadata
     id="metadata833">
    <rdf:RDF>
      <cc:Work
         rdf:about="">
        <dc:format>image/svg+xml</dc:format>
        <dc:type
           rdf:resource="http://purl.org/dc/dcmitype/StillImage" />
        <dc:title></dc:title>
      </cc:Work>
    </rdf:RDF>
  </metadata>
  <defs
     id="defs831" />
  <sodipodi:namedview
     pagecolor="#ffffff"
     bordercolor="#666666"
     borderopacity="1"
     objecttolerance="10"
     gridtolerance="10"
     guidetolerance="10"
     inkscape:pageopacity="0"
     inkscape:pageshadow="2"
     inkscape:window-width="1920"
     inkscape:window-height="1017"
     id="namedview829"
     showgrid="false"
     inkscape:zoom="3.9333333"
     inkscape:cx="30"
     inkscape:cy="30"
     inkscape:window-x="1358"
     inkscape:window-y="-8"
     inkscape:window-maximized="1"
     inkscape:current-layer="svg827" />
  <path
     style="fill:#000000"
     d="m 8.2372878,52.565831 c -1.314623,-0.863295 -1.285579,-1.199505 0.23501,-2.720488 1.224499,-1.224817 4.0197852,-1.897499 9.5000002,-2.286164 7.67427,-0.544271 7.727019,-0.566726 4.51499,-1.922025 -3.413411,-1.440271 -4.105423,-3.66179 -2.231425,-7.163388 0.763674,-1.426938 0.541313,-2.793694 -0.888545,-5.461499 -2.65281,-4.949569 -1.434251,-9.902398 3.567113,-14.498514 2.717077,-2.496918 3.802857,-4.318239 3.802857,-6.379026 0,-1.655201 0.745736,-3.3598114 1.75,-4.0001638 2.622801,-1.6723864 5.280656,0.4476141 5.121729,4.0852748 -0.0955,2.18585 0.591078,3.419448 2.687235,4.828265 3.122423,2.098566 6.943087,8.209893 6.937298,11.096526 -0.0021,1.025115 -0.856098,3.261649 -1.897871,4.970077 -1.232212,2.020733 -1.585715,3.593295 -1.011575,4.5 0.485407,0.766572 0.889449,2.642406 0.897871,4.168519 0.01149,2.082755 -0.67051,3.06805 -2.734687,3.950817 -2.572577,1.10019 -2.330637,1.212701 3.75,1.743894 6.927847,0.605203 11.380403,2.411991 10.715587,4.348242 -0.223269,0.650263 -1.938113,1.112036 -3.810765,1.026163 -9.927417,-0.455237 -33.249717,-0.375509 -36.109119,0.123439 -1.812637,0.316294 -3.9707032,0.131817 -4.7957032,-0.409949 z m 21.9602402,-2.12628 c 7.213627,-0.0041 14.786103,0.26058 16.827723,0.588183 2.46896,0.396176 3.209721,0.286455 2.212037,-0.327645 -1.267609,-0.780245 -14.129066,-2.415013 -19,-2.415013 -4.870934,0 -17.732391,1.634768 -19,2.415013 -1.000363,0.615749 -0.276797,0.727369 2.172277,0.335104 2.019752,-0.323501 9.574336,-0.59154 16.787963,-0.595642 z m 6.53976,-6.450129 c 5.564335,-1.155272 2.091108,-2.480948 -6.5,-2.480948 -5.216801,0 -9,0.412347 -9,0.980948 0,0.903964 0.883981,1.222052 6.5,2.33893 1.96058,0.389908 3.994492,0.200318 9,-0.83893 z m 1.466258,-6.021605 c -1.615926,-1.947071 -15.061882,-1.698454 -15.7196,0.290657 -0.309474,0.935929 1.774058,1.25 8.292453,1.25 7.727194,0 8.562052,-0.17318 7.427147,-1.540657 z m 1.477038,-5.681849 c 0.856187,-1.222379 1.555022,-3.134879 1.552966,-4.25 -0.0062,-3.347597 -3.75177,-8.443261 -7.530969,-10.245436 -3.366792,-1.605511 -3.724461,-1.597294 -6.988562,0.16054 -4.374581,2.355867 -6.864428,6.133247 -6.871322,10.424574 -0.0078,4.825754 2.342835,6.132828 11.029017,6.132828 6.360565,0 7.443552,-0.273241 8.80887,-2.222506 z M 29.237288,27.008474 c 0,-0.825 -0.7875,-1.514312 -1.75,-1.531803 -1.666667,-0.03029 -1.666667,-0.09506 0,-1.360243 0.9625,-0.730642 1.75,-1.84133 1.75,-2.468197 0,-0.626866 0.45,-1.139757 1,-1.139757 0.55,0 1,0.675 1,1.5 0,0.825 0.675,1.5 1.5,1.5 0.825,0 1.5,0.45 1.5,1 0,0.55 -0.675,1 -1.5,1 -0.825,0 -1.5,0.675 -1.5,1.5 0,0.825 -0.45,1.5 -1,1.5 -0.55,0 -1,-0.675 -1,-1.5 z m 3,-15.5 c 0,-1.333333 -0.666667,-1.9999994 -2,-1.9999994 -1.333333,0 -2,0.6666664 -2,1.9999994 0,1.333333 0.666667,2 2,2 1.333333,0 2,-0.666667 2,-2 z"
     id="path1380"
     inkscape:connector-curvature="0" />
</svg>
